<svg width="24" height="24" viewBox="0 0 24 24" fill="none" xmlns="http://www.w3.org/2000/svg">
<path fill-rule="evenodd" clip-rule="evenodd" d="M6.5 2C4.01472 2 2 4.01472 2 6.5V17.5C2 19.9853 4.01472 22 6.5 22H17.5C19.9853 22 22 19.9853 22 17.5V6.5C22 4.01472 19.9853 2 17.5 2H6.5ZM14.5 12C14.5 13.3807 13.3807 14.5 12 14.5C10.6193 14.5 9.5 13.3807 9.5 12C9.5 10.6193 10.6193 9.5 12 9.5C13.3807 9.5 14.5 10.6193 14.5 12ZM16 12C16 14.2091 14.2091 16 12 16C9.79086 16 8 14.2091 8 12C8 9.79086 9.79086 8 12 8C14.2091 8 16 9.79086 16 12ZM17 8C17 8.55228 16.5523 9 16 9C15.4477 9 15 8.55228 15 8C15 7.44772 15.4477 7 16 7C16.5523 7 17 7.44772 17 8ZM12 4.5L11.9558 4.5C10.5871 4.49999 9.49891 4.49998 8.63216 4.59389C7.74205 4.69032 6.997 4.89296 6.35497 5.35942C5.97294 5.63698 5.63698 5.97294 5.35942 6.35497C4.89296 6.997 4.69032 7.74205 4.59389 8.63216C4.49998 9.49891 4.49999 10.5871 4.5 11.9558L4.5 12L4.5 12.0442C4.49999 13.4129 4.49998 14.5011 4.59389 15.3678C4.69032 16.2579 4.89296 17.003 5.35942 17.645C5.63698 18.0271 5.97294 18.363 6.35497 18.6406C6.997 19.107 7.74205 19.3097 8.63216 19.4061C9.49891 19.5 10.5871 19.5 11.9558 19.5H12H12.0442C13.4129 19.5 14.5011 19.5 15.3678 19.4061C16.2579 19.3097 17.003 19.107 17.645 18.6406C18.0271 18.363 18.363 18.0271 18.6406 17.645C19.107 17.003 19.3097 16.2579 19.4061 15.3678C19.5 14.5011 19.5 13.4129 19.5 12.0442V12V11.9558C19.5 10.5871 19.5 9.49891 19.4061 8.63216C19.3097 7.74205 19.107 6.997 18.6406 6.35497C18.363 5.97294 18.0271 5.63698 17.645 5.35942C17.003 4.89296 16.2579 4.69032 15.3678 4.59389C14.5011 4.49998 13.4129 4.49999 12.0442 4.5L12 4.5ZM7.23664 6.57295C7.58036 6.32323 8.03125 6.16777 8.79373 6.08516C9.57025 6.00103 10.5771 6 12 6C13.4229 6 14.4298 6.00103 15.2063 6.08516C15.9688 6.16777 16.4196 6.32323 16.7634 6.57295C17.018 6.75799 17.242 6.98196 17.4271 7.23664C17.6768 7.58036 17.8322 8.03125 17.9148 8.79373C17.999 9.57025 18 10.5771 18 12C18 13.4229 17.999 14.4298 17.9148 15.2063C17.8322 15.9688 17.6768 16.4196 17.4271 16.7634C17.242 17.018 17.018 17.242 16.7634 17.4271C16.4196 17.6768 15.9688 17.8322 15.2063 17.9148C14.4298 17.999 13.4229 18 12 18C10.5771 18 9.57025 17.999 8.79373 17.9148C8.03125 17.8322 7.58036 17.6768 7.23664 17.4271C6.98196 17.242 6.75799 17.018 6.57295 16.7634C6.32323 16.4196 6.16777 15.9688 6.08516 15.2063C6.00103 14.4298 6 13.4229 6 12C6 10.5771 6.00103 9.57025 6.08516 8.79373C6.16777 8.03125 6.32323 7.58036 6.57295 7.23664C6.75799 6.98196 6.98196 6.75799 7.23664 6.57295Z" fill="#212121"/>
</svg>
